<svg width="25" height="25" viewBox="0 0 25 25" fill="none" xmlns="http://www.w3.org/2000/svg">
<path d="M17.708 2.08331H7.29134C4.41486 2.08331 2.08301 4.41516 2.08301 7.29165V17.7083C2.08301 20.5848 4.41486 22.9166 7.29134 22.9166H17.708C20.5845 22.9166 22.9163 20.5848 22.9163 17.7083V7.29165C22.9163 4.41516 20.5845 2.08331 17.708 2.08331Z" stroke="black" stroke-width="1.2" stroke-linecap="round" stroke-linejoin="round"/>
<path d="M16.6662 11.8438C16.7948 12.7107 16.6467 13.5961 16.243 14.374C15.8394 15.1519 15.2007 15.7827 14.4179 16.1768C13.6351 16.5708 12.7479 16.7079 11.8826 16.5687C11.0174 16.4295 10.218 16.0209 9.59832 15.4012C8.97861 14.7815 8.57009 13.9822 8.43085 13.1169C8.29162 12.2516 8.42877 11.3645 8.82279 10.5816C9.21681 9.79882 9.84764 9.16016 10.6256 8.75651C11.4035 8.35287 12.2889 8.20479 13.1558 8.33334C14.0401 8.46447 14.8588 8.87653 15.4909 9.50866C16.123 10.1408 16.5351 10.9595 16.6662 11.8438Z" stroke="black" stroke-width="1.2" stroke-linecap="round" stroke-linejoin="round"/>
<path d="M18.2295 6.77081H18.2407" stroke="black" stroke-width="2" stroke-linecap="round" stroke-linejoin="round"/>
</svg>
