<?xml version="1.0" encoding="UTF-8"?>
<svg xmlns="http://www.w3.org/2000/svg" xmlns:xlink="http://www.w3.org/1999/xlink" width="32px" height="32px" viewBox="0 0 32 32" version="1.1">
<g id="surface1">
<path style=" stroke:none;fill-rule:nonzero;fill:rgb(0%,0%,0%);fill-opacity:1;" d="M 12.773438 10.316406 L 12.355469 10.316406 L 12.355469 7.90625 C 12.355469 7.621094 12.128906 7.394531 11.84375 7.394531 L 8.921875 7.394531 C 8.640625 7.394531 8.410156 7.621094 8.410156 7.90625 L 8.410156 10.316406 L 7.992188 10.316406 C 7.710938 10.316406 7.480469 10.546875 7.480469 10.828125 L 7.480469 29.695312 C 7.480469 29.980469 7.710938 30.207031 7.992188 30.207031 L 12.773438 30.207031 C 13.058594 30.207031 13.285156 29.980469 13.285156 29.695312 L 13.285156 10.828125 C 13.285156 10.546875 13.058594 10.316406 12.773438 10.316406 Z M 9.433594 8.417969 L 11.332031 8.417969 L 11.332031 10.316406 L 9.433594 10.316406 Z M 12.261719 29.183594 L 8.503906 29.183594 L 8.503906 11.339844 L 12.261719 11.339844 Z M 12.261719 29.183594 "/>
<path style=" stroke:none;fill-rule:nonzero;fill:rgb(0%,0%,0%);fill-opacity:1;" d="M 24.488281 27.828125 L 21.207031 18.984375 C 21.160156 18.859375 21.066406 18.753906 20.941406 18.699219 C 20.820312 18.640625 20.679688 18.636719 20.550781 18.683594 L 18.789062 19.335938 L 14.335938 7.339844 L 14.914062 7.125 C 15.089844 7.066406 15.21875 6.914062 15.25 6.730469 C 15.28125 6.550781 15.214844 6.363281 15.070312 6.246094 C 14.925781 6.128906 14.730469 6.097656 14.558594 6.164062 L 13.980469 6.378906 L 13.828125 5.96875 L 14.78125 5.617188 C 14.953125 5.554688 15.082031 5.40625 15.117188 5.222656 C 15.148438 5.039062 15.078125 4.855469 14.933594 4.738281 C 14.792969 4.621094 14.597656 4.589844 14.425781 4.65625 L 13.472656 5.011719 L 13.320312 4.597656 L 13.898438 4.386719 C 14.074219 4.324219 14.199219 4.171875 14.234375 3.992188 C 14.265625 3.808594 14.195312 3.625 14.054688 3.507812 C 13.910156 3.386719 13.714844 3.359375 13.542969 3.425781 L 12.960938 3.640625 L 12.8125 3.230469 L 13.015625 3.152344 C 13.277344 3.050781 13.40625 2.757812 13.308594 2.496094 C 13.210938 2.234375 12.925781 2.101562 12.660156 2.191406 L 12.453125 2.269531 L 12.402344 2.125 C 12.339844 1.953125 12.191406 1.824219 12.007812 1.789062 C 11.824219 1.757812 11.640625 1.828125 11.523438 1.972656 C 11.40625 2.113281 11.375 2.308594 11.441406 2.480469 L 11.496094 2.625 L 11.414062 2.65625 C 11.148438 2.753906 11.015625 3.050781 11.113281 3.316406 C 11.214844 3.582031 11.511719 3.714844 11.777344 3.613281 L 11.855469 3.585938 L 12.007812 3.996094 L 11.554688 4.164062 C 11.316406 4.277344 11.207031 4.554688 11.296875 4.800781 C 11.386719 5.046875 11.648438 5.183594 11.902344 5.121094 L 12.359375 4.949219 L 12.507812 5.363281 L 11.679688 5.667969 C 11.417969 5.769531 11.28125 6.0625 11.378906 6.328125 C 11.476562 6.59375 11.773438 6.726562 12.039062 6.628906 L 12.867188 6.320312 L 13.019531 6.734375 L 12.5625 6.902344 C 12.296875 7 12.164062 7.292969 12.261719 7.558594 C 12.359375 7.824219 12.65625 7.960938 12.921875 7.859375 L 13.375 7.691406 L 17.824219 19.6875 L 16.066406 20.351562 C 15.800781 20.449219 15.664062 20.746094 15.761719 21.011719 L 19.042969 29.855469 C 19.089844 29.984375 19.1875 30.085938 19.308594 30.144531 C 19.378906 30.171875 19.449219 30.191406 19.523438 30.191406 C 19.585938 30.191406 19.644531 30.179688 19.703125 30.15625 L 24.183594 28.492188 C 24.3125 28.449219 24.417969 28.351562 24.472656 28.226562 C 24.53125 28.101562 24.535156 27.957031 24.488281 27.828125 Z M 19.824219 29.015625 L 16.894531 21.128906 L 20.421875 19.820312 L 23.34375 27.707031 Z M 19.824219 29.015625 "/>
</g>
</svg>
